<svg width="48" height="48" viewBox="0 0 48 48" fill="none" xmlns="http://www.w3.org/2000/svg">
<path d="M23.73 41C23.894 41 24.0843 40.9604 24.301 40.881C24.5177 40.8017 24.6967 40.6914 24.838 40.55L41.64 23.698C42.089 23.2487 42.43 22.7339 42.663 22.1535C42.8957 21.5735 43.012 20.9772 43.012 20.3645C43.012 19.7575 42.8957 19.1534 42.663 18.552C42.43 17.9507 42.089 17.4217 41.64 16.965L32.975 8.30002C32.5337 7.86669 32.0235 7.54169 31.4445 7.32502C30.8658 7.10836 30.2865 7.00002 29.7065 7.00002C29.1272 7.00002 28.5572 7.10636 27.9965 7.31902C27.4358 7.53169 26.9428 7.84669 26.5175 8.26403L25.701 9.09252L29.6795 13.1085C30.1365 13.6072 30.5417 14.1829 30.895 14.8355C31.2483 15.4879 31.425 16.2049 31.425 16.9865C31.425 18.3165 30.9052 19.4927 29.8655 20.515C28.8255 21.5377 27.6357 22.049 26.296 22.049C25.4177 22.049 24.6875 21.916 24.1055 21.65C23.5235 21.384 22.9833 21.0019 22.485 20.5035L18.8585 16.877L10.024 25.712C9.85733 25.8724 9.74066 26.0452 9.674 26.2305C9.60733 26.4159 9.574 26.6097 9.574 26.812C9.574 27.2454 9.71466 27.6017 9.996 27.881C10.2773 28.1604 10.6333 28.3 11.064 28.3C11.2627 28.3 11.4552 28.25 11.6415 28.15C11.8282 28.05 11.989 27.9334 12.124 27.8L17.851 22.074C18.1533 21.771 18.5045 21.6195 18.9045 21.6195C19.3045 21.6195 19.6545 21.7715 19.9545 22.0755C20.2545 22.3795 20.4045 22.73 20.4045 23.127C20.4045 23.524 20.2545 23.8715 19.9545 24.1695L14.275 29.8485C14.1077 30.0162 13.9907 30.2027 13.924 30.408C13.8573 30.6137 13.824 30.815 13.824 31.012C13.824 31.415 13.97 31.7639 14.262 32.0585C14.554 32.3529 14.9 32.5 15.3 32.5C15.5 32.5 15.6942 32.458 15.8825 32.374C16.0708 32.2904 16.2358 32.1815 16.3775 32.0475L22.0765 26.336C22.3792 26.033 22.7305 25.8835 23.1305 25.8875C23.5305 25.8915 23.8805 26.0395 24.1805 26.3315C24.4805 26.6315 24.6305 26.9815 24.6305 27.3815C24.6305 27.7815 24.4805 28.1315 24.1805 28.4315L18.4895 34.111C18.3632 34.245 18.2563 34.4204 18.169 34.637C18.0817 34.8537 18.038 35.062 18.038 35.262C18.038 35.662 18.188 36.012 18.488 36.312C18.788 36.612 19.138 36.762 19.538 36.762C19.738 36.762 19.9227 36.7267 20.092 36.656C20.2617 36.5854 20.427 36.4707 20.588 36.312L26.3185 30.5695C26.6165 30.2695 26.966 30.1215 27.367 30.1255C27.768 30.1295 28.1185 30.2775 28.4185 30.5695C28.7185 30.8775 28.8685 31.23 28.8685 31.627C28.8685 32.024 28.7185 32.3715 28.4185 32.6695L22.688 38.4C22.5293 38.5667 22.4147 38.7527 22.344 38.958C22.2733 39.1637 22.238 39.3484 22.238 39.512C22.238 39.9817 22.3713 40.3472 22.638 40.6085C22.9047 40.8695 23.2687 41 23.73 41ZM23.738 44.275C22.5983 44.275 21.5772 43.8647 20.6745 43.044C19.7718 42.2234 19.2213 41.201 19.023 39.977C17.9053 39.8024 16.9613 39.3279 16.191 38.5535C15.4203 37.7789 14.9477 36.8367 14.773 35.727C13.6713 35.5447 12.7435 35.0637 11.9895 34.284C11.2355 33.5047 10.7673 32.577 10.585 31.501C9.34366 31.3027 8.317 30.7647 7.505 29.887C6.693 29.0097 6.287 27.9679 6.287 26.7615C6.287 26.1632 6.40266 25.565 6.634 24.967C6.865 24.369 7.2065 23.8409 7.6585 23.3825L16.4715 14.5695C17.1235 13.9232 17.9205 13.6 18.8625 13.6C19.8048 13.6 20.6032 13.9232 21.2575 14.5695L24.538 17.85C24.8047 18.1167 25.0977 18.327 25.417 18.481C25.7363 18.635 26.0513 18.712 26.362 18.712C26.7883 18.712 27.191 18.5212 27.57 18.1395C27.9487 17.7582 28.138 17.3524 28.138 16.922C28.138 16.7234 28.0757 16.495 27.951 16.237C27.8263 15.979 27.6345 15.7165 27.3755 15.4495L20.2015 8.27502C19.7765 7.85036 19.2705 7.53169 18.6835 7.31902C18.0968 7.10636 17.5055 7.00002 16.9095 7.00002C16.3052 7.00002 15.725 7.10636 15.169 7.31902C14.613 7.53169 14.127 7.84969 13.711 8.27303L6.2285 15.7325C5.6015 16.3675 5.217 17.142 5.075 18.056C4.933 18.97 5.03733 19.8405 5.388 20.6675C5.53066 21.0739 5.50483 21.4767 5.3105 21.876C5.11583 22.2754 4.81316 22.5544 4.4025 22.713C3.99216 22.8717 3.577 22.8479 3.157 22.6415C2.737 22.4349 2.44966 22.1244 2.295 21.71C1.76433 20.2337 1.61966 18.7659 1.861 17.3065C2.10233 15.8472 2.79433 14.5454 3.937 13.401L11.3555 5.97303C12.1048 5.22369 12.9745 4.67002 13.9645 4.31202C14.9545 3.95402 15.9528 3.77502 16.9595 3.77502C17.9898 3.77502 18.9858 3.95402 19.9475 4.31202C20.9088 4.67002 21.7622 5.21569 22.5075 5.94902L23.336 6.76502L24.152 5.94902C24.8933 5.22369 25.758 4.68002 26.746 4.31802C27.734 3.95602 28.7365 3.77502 29.7535 3.77502C30.7678 3.77502 31.7592 3.96002 32.7275 4.33002C33.6962 4.70002 34.5552 5.25952 35.3045 6.00852L44.0035 14.6955C44.7608 15.4499 45.3287 16.3284 45.707 17.331C46.0857 18.3337 46.275 19.3449 46.275 20.3645C46.275 21.3845 46.0797 22.392 45.689 23.387C45.2987 24.382 44.7248 25.262 43.9675 26.027L27.1295 42.8535C26.6722 43.3105 26.1525 43.6617 25.5705 43.907C24.9888 44.1524 24.378 44.275 23.738 44.275Z" fill="#007BFF"/>
</svg>
