<svg width="48" height="48" viewBox="0 0 48 48" fill="none" xmlns="http://www.w3.org/2000/svg">
<path d="M22.8065 15.3925L18.776 11.312C18.4363 10.972 18.2665 10.5722 18.2665 10.1125C18.2665 9.65283 18.4363 9.253 18.776 8.913L22.8065 4.8325C23.1465 4.49283 23.5463 4.323 24.006 4.323C24.4657 4.323 24.8655 4.49283 25.2055 4.8325L29.286 8.913C29.6257 9.253 29.7955 9.65283 29.7955 10.1125C29.7955 10.5722 29.6257 10.972 29.286 11.312L25.2055 15.3925C24.8655 15.7322 24.4657 15.902 24.006 15.902C23.5463 15.902 23.1465 15.7322 22.8065 15.3925ZM3.3565 40.586C2.8675 40.586 2.46134 40.4243 2.138 40.101C1.815 39.778 1.6535 39.3718 1.6535 38.8825V32.3825C1.6535 31.3602 2.017 30.4873 2.744 29.764C3.47134 29.041 4.34217 28.6795 5.3565 28.6795H12.4665C13.0488 28.6795 13.5885 28.8132 14.0855 29.0805C14.5822 29.3478 15.0058 29.7195 15.3565 30.1955C16.3392 31.6195 17.5925 32.7228 19.1165 33.5055C20.6402 34.2882 22.268 34.6795 24 34.6795C25.724 34.6795 27.3498 34.2882 28.8775 33.5055C30.4055 32.7228 31.6815 31.6195 32.7055 30.1955C33.0402 29.7195 33.4495 29.3478 33.9335 29.0805C34.4178 28.8132 34.9552 28.6795 35.5455 28.6795H42.6555C43.6778 28.6795 44.5507 29.041 45.274 29.764C45.997 30.4873 46.3585 31.3602 46.3585 32.3825V38.8825C46.3585 39.3718 46.197 39.778 45.874 40.101C45.5507 40.4243 45.1445 40.586 44.6555 40.586H34.6555C34.1662 40.586 33.76 40.4243 33.437 40.101C33.1137 39.778 32.952 39.3718 32.952 38.8825V34.564C31.744 35.6243 30.371 36.4465 28.833 37.0305C27.295 37.6145 25.684 37.9065 24 37.9065C22.324 37.9065 20.7233 37.6165 19.198 37.0365C17.6727 36.4565 16.2933 35.6323 15.06 34.564V38.8825C15.06 39.3718 14.8983 39.778 14.575 40.101C14.2517 40.4243 13.8455 40.586 13.3565 40.586H3.3565ZM8 24.8205C6.476 24.8205 5.16434 24.2708 4.065 23.1715C2.966 22.0725 2.4165 20.757 2.4165 19.225C2.4165 17.6757 2.966 16.3577 4.065 15.271C5.16434 14.1847 6.476 13.6415 8 13.6415C9.55734 13.6415 10.8793 14.1847 11.966 15.271C13.0523 16.3577 13.5955 17.6757 13.5955 19.225C13.5955 20.757 13.0523 22.0725 11.966 23.1715C10.8793 24.2708 9.55734 24.8205 8 24.8205ZM40 24.8205C38.476 24.8205 37.1643 24.2708 36.065 23.1715C34.966 22.0725 34.4165 20.757 34.4165 19.225C34.4165 17.6757 34.966 16.3577 36.065 15.271C37.1643 14.1847 38.476 13.6415 40 13.6415C41.5573 13.6415 42.8793 14.1847 43.966 15.271C45.0523 16.3577 45.5955 17.6757 45.5955 19.225C45.5955 20.757 45.0523 22.0725 43.966 23.1715C42.8793 24.2708 41.5573 24.8205 40 24.8205Z" fill="#00D5FF"/>
</svg>
