<svg width="48" height="48" viewBox="0 0 48 48" fill="none" xmlns="http://www.w3.org/2000/svg">
<path d="M3.1825 32.9085V27.8885C3.1825 26.6698 3.49933 25.5603 4.133 24.56C4.76633 23.56 5.63866 22.8183 6.74999 22.335C8.77399 21.4523 10.846 20.7256 12.966 20.155C15.086 19.5843 17.2625 19.299 19.4955 19.299C21.2268 19.299 22.936 19.474 24.623 19.8239C26.31 20.174 27.9573 20.649 29.565 21.249C29.1347 21.6633 28.734 22.1001 28.363 22.5595C27.9923 23.0185 27.6713 23.5091 27.4 24.0315C26.1237 23.5818 24.825 23.2503 23.504 23.037C22.183 22.824 20.8447 22.7175 19.489 22.7175C17.5 22.7175 15.5595 22.9635 13.6675 23.4555C11.7755 23.9475 9.95333 24.5815 8.201 25.3575C7.693 25.5875 7.29933 25.936 7.01999 26.403C6.74066 26.8703 6.601 27.3805 6.601 27.9335V29.502H25.6315C25.5902 30.074 25.5962 30.6438 25.6495 31.2115C25.7028 31.7791 25.7867 32.3448 25.901 32.9085H3.1825ZM19.4875 16.249C17.3435 16.249 15.5327 15.51 14.055 14.032C12.577 12.554 11.838 10.7431 11.838 8.59945C11.838 6.45545 12.5763 4.64462 14.053 3.16695C15.5293 1.68895 17.3428 0.949951 19.4935 0.949951C21.6335 0.949951 23.4423 1.68828 24.92 3.16495C26.398 4.64128 27.137 6.45478 27.137 8.60545C27.137 10.7451 26.398 12.554 24.92 14.032C23.4423 15.51 21.6315 16.249 19.4875 16.249ZM19.486 12.974C20.7177 12.974 21.755 12.5538 22.598 11.7135C23.4407 10.8735 23.862 9.83879 23.862 8.60945C23.862 7.37978 23.4417 6.34162 22.601 5.49495C21.7607 4.64829 20.7255 4.22495 19.4955 4.22495C18.2622 4.22495 17.2235 4.64762 16.3795 5.49295C15.5352 6.33862 15.113 7.37612 15.113 8.60545C15.113 9.83478 15.5338 10.8703 16.3755 11.712C17.2175 12.5533 18.2543 12.974 19.486 12.974ZM37.924 8.60545C37.924 10.7375 37.1832 12.5443 35.7015 14.026C34.2202 15.508 32.412 16.249 30.277 16.249C29.838 16.249 29.4225 16.2303 29.0305 16.193C28.6385 16.1556 28.2265 16.0496 27.7945 15.875C28.7105 14.899 29.3538 13.7746 29.7245 12.502C30.0952 11.2293 30.2805 9.93062 30.2805 8.60595C30.2805 7.28162 30.0785 5.99078 29.6745 4.73345C29.2705 3.47645 28.6438 2.33995 27.7945 1.32395C28.2025 1.16995 28.6065 1.06912 29.0065 1.02145C29.4065 0.973784 29.8343 0.949951 30.29 0.949951C32.4133 0.949951 34.2165 1.69012 35.6995 3.17045C37.1825 4.65112 37.924 6.46278 37.924 8.60545ZM38.269 40.1575C35.594 40.1575 33.3127 39.2118 31.425 37.3205C29.5373 35.4291 28.5935 33.1418 28.5935 30.4585C28.5935 27.7691 29.5392 25.479 31.4305 23.588C33.3218 21.6966 35.6092 20.751 38.2925 20.751C40.9818 20.751 43.272 21.696 45.163 23.586C47.0543 25.4763 48 27.775 48 30.482C48 33.157 47.055 35.4383 45.165 37.326C43.2747 39.2136 40.976 40.1575 38.269 40.1575ZM36.4085 34.686L43.2285 27.8425L42.0465 26.6729L36.3965 32.323L33.5965 29.4729L32.415 30.6544L36.4085 34.686Z" fill="#FFA033"/>
</svg>
