<svg width="24" height="24" viewBox="0 0 24 24" fill="none" xmlns="http://www.w3.org/2000/svg">
<path d="M11.1482 7.09502L5.64674 12.5968C5.4764 12.7668 5.2764 12.8527 5.04674 12.8545C4.81707 12.8565 4.6164 12.7726 4.44474 12.6028C4.27257 12.4328 4.18749 12.2322 4.18949 12.001C4.19149 11.7699 4.2774 11.5686 4.44724 11.3973L11.3972 4.44727C11.4892 4.35627 11.5849 4.29011 11.6842 4.24877C11.7837 4.20727 11.8892 4.18652 12.0007 4.18652C12.1122 4.18652 12.2175 4.20727 12.3165 4.24877C12.4157 4.29011 12.5111 4.35627 12.6027 4.44727L19.5587 11.4033C19.7286 11.5791 19.8135 11.7805 19.8135 12.0075C19.8135 12.2344 19.7286 12.4328 19.5587 12.6028C19.3847 12.7726 19.184 12.8575 18.9565 12.8575C18.7288 12.8575 18.5297 12.7726 18.3592 12.6028L12.8517 7.09502V19.2978C12.8517 19.5424 12.7709 19.7455 12.6092 19.907C12.4476 20.0687 12.2445 20.1495 12 20.1495C11.7555 20.1495 11.5524 20.0687 11.3907 19.907C11.2291 19.7455 11.1482 19.5424 11.1482 19.2978V7.09502Z" fill="white"/>
</svg>
