<svg width="24" height="24" viewBox="0 0 24 24" fill="none" xmlns="http://www.w3.org/2000/svg">
<path d="M4.11902 3.34473H7.61902C7.80275 3.34474 7.93038 3.39945 8.03503 3.49805C8.12854 3.58614 8.20705 3.70059 8.2655 3.85156L8.31726 4.01465L8.9823 7.02832C9.01497 7.26011 9.00744 7.44511 8.97253 7.5918C8.94139 7.72276 8.8796 7.83104 8.78015 7.92578L8.77332 7.93164L6.25574 10.415L5.97644 10.6904L6.17664 11.0264C6.60337 11.7435 7.05685 12.416 7.53699 13.042C8.01981 13.6715 8.55599 14.2696 9.14441 14.8369C9.75779 15.4701 10.399 16.0453 11.0682 16.5605C11.7434 17.0804 12.4488 17.5353 13.1844 17.9248L13.5155 18.0996L13.7762 17.832L16.1815 15.3643L16.1913 15.3535C16.3309 15.2021 16.4775 15.111 16.6337 15.0645C16.7647 15.0256 16.8944 15.012 17.0253 15.0215L17.1571 15.0391L19.9774 15.6631C20.1431 15.7092 20.2749 15.7806 20.3817 15.875L20.4813 15.9775C20.5981 16.1186 20.6552 16.2764 20.6552 16.4707V19.8809C20.6552 20.1178 20.581 20.2895 20.4374 20.4316C20.2909 20.5766 20.1181 20.6494 19.8866 20.6494C18.0114 20.6494 16.0911 20.1991 14.1219 19.2842C12.1538 18.3698 10.3229 17.0691 8.62976 15.376C7.0427 13.7889 5.79967 12.0798 4.89539 10.249L4.71863 9.88086C3.80159 7.90938 3.35046 5.99008 3.35046 4.11914C3.35048 3.94128 3.39174 3.79881 3.47351 3.67773L3.56921 3.56348C3.71327 3.41863 3.88502 3.34473 4.11902 3.34473ZM4.06628 4.5752C4.09721 5.28818 4.20923 6.0365 4.39929 6.81836C4.59086 7.60639 4.89058 8.47618 5.2948 9.4248L5.58386 10.1035L6.1073 9.58301L8.12683 7.5752L8.32019 7.38281L8.26257 7.11621L7.69421 4.44922L7.60925 4.05371H4.04382L4.06628 4.5752ZM19.9462 16.377L19.5477 16.2949L17.0624 15.7803L16.7909 15.7246L16.5985 15.9248L14.6356 17.9824L14.1542 18.4863L14.787 18.7812C15.4818 19.1045 16.2353 19.3664 17.0448 19.5693C17.8555 19.7725 18.6477 19.8945 19.4208 19.9336L19.9462 19.96V16.377Z" fill="#FF8800" stroke="#FF8800"/>
</svg>
