<svg width="24" height="24" viewBox="0 0 24 24" fill="none" xmlns="http://www.w3.org/2000/svg">
<path d="M3.05359 5.74219V18.9463H20.9462V6.13867L20.1708 6.64844L12.2147 11.8867C12.1544 11.9184 12.102 11.944 12.0565 11.9619C12.0534 11.9629 12.0366 11.9678 11.9999 11.9678C11.9626 11.9678 11.946 11.9628 11.9432 11.9619C11.8975 11.9439 11.8448 11.9186 11.7841 11.8867L4.05359 6.7959V6.39648L11.7264 11.4219L11.9999 11.6016L12.2733 11.4229L20.62 5.97266L21.6307 5.31152C21.6464 5.38933 21.6551 5.46973 21.6552 5.55371V18.4463C21.6552 18.7675 21.5429 19.041 21.2938 19.2891C21.0449 19.5371 20.7701 19.6494 20.4462 19.6494H3.55359C3.23187 19.6494 2.95869 19.5371 2.71082 19.2891L2.6239 19.1953C2.43623 18.9725 2.35046 18.7279 2.35046 18.4463V5.55371C2.35048 5.46519 2.35953 5.38047 2.37683 5.29883L3.05359 5.74219ZM3.55359 4.34473H20.4462C20.7696 4.34473 21.0438 4.4579 21.2928 4.70703H21.2938C21.4035 4.81669 21.485 4.93216 21.5438 5.05371H2.46082C2.5195 4.93172 2.60127 4.81595 2.71082 4.70605H2.71179C2.95976 4.45718 3.23251 4.34476 3.55359 4.34473Z" fill="#FF8800" stroke="#FF8800"/>
</svg>
