<svg width="16" height="16" viewBox="0 0 16 16" fill="none" xmlns="http://www.w3.org/2000/svg">
<path d="M5.24839 7.96669C5.10728 7.96669 4.9895 8.01458 4.89506 8.11036C4.80061 8.20625 4.75339 8.32503 4.75339 8.46669V10.8834C4.75339 11.025 4.80156 11.1438 4.89789 11.2395C4.99433 11.3354 5.11311 11.3834 5.25422 11.3834C5.39545 11.3834 5.51395 11.3354 5.60972 11.2395C5.7055 11.1438 5.75339 11.025 5.75339 10.8834V8.46669C5.75339 8.32503 5.7045 8.20625 5.60672 8.11036C5.50906 8.01458 5.38961 7.96669 5.24839 7.96669ZM10.7459 4.38336C10.6047 4.38336 10.4868 4.43125 10.3924 4.52703C10.2979 4.62292 10.2507 4.74169 10.2507 4.88336V10.8834C10.2507 11.025 10.2989 11.1438 10.3954 11.2395C10.4917 11.3354 10.6105 11.3834 10.7517 11.3834C10.8928 11.3834 11.0113 11.3354 11.1071 11.2395C11.2028 11.1438 11.2507 11.025 11.2507 10.8834V4.88336C11.2507 4.74169 11.2019 4.62292 11.1042 4.52703C11.0064 4.43125 10.887 4.38336 10.7459 4.38336ZM7.99706 9.41669C7.85461 9.41669 7.73617 9.46458 7.64172 9.56036C7.54728 9.65625 7.50006 9.77503 7.50006 9.91669V10.8834C7.50006 11.025 7.54828 11.1438 7.64472 11.2395C7.74106 11.3354 7.8605 11.3834 8.00306 11.3834C8.1455 11.3834 8.26395 11.3354 8.35839 11.2395C8.45283 11.1438 8.50006 11.025 8.50006 10.8834V9.91669C8.50006 9.77503 8.45183 9.65625 8.35539 9.56036C8.25906 9.46458 8.13961 9.41669 7.99706 9.41669ZM3.03589 14.0997C2.72922 14.0997 2.46333 13.9871 2.23822 13.7619C2.013 13.5368 1.90039 13.2709 1.90039 12.9642V3.03586C1.90039 2.72808 2.013 2.46125 2.23822 2.23536C2.46333 2.00936 2.72922 1.89636 3.03589 1.89636H12.9642C13.272 1.89636 13.5388 2.00936 13.7647 2.23536C13.9907 2.46125 14.1037 2.72808 14.1037 3.03586V12.9642C14.1037 13.2709 13.9907 13.5368 13.7647 13.7619C13.5388 13.9871 13.272 14.0997 12.9642 14.0997H3.03589ZM3.03589 12.9642H12.9642V3.03586H3.03589V12.9642ZM8.00306 7.96669C8.1455 7.96669 8.26395 7.91847 8.35839 7.82203C8.45283 7.72569 8.50006 7.60625 8.50006 7.46369C8.50006 7.32125 8.45183 7.20281 8.35539 7.10836C8.25906 7.01392 8.13961 6.96669 7.99706 6.96669C7.85461 6.96669 7.73617 7.01492 7.64172 7.11136C7.54728 7.20769 7.50006 7.32714 7.50006 7.46969C7.50006 7.61214 7.54828 7.73058 7.64472 7.82503C7.74106 7.91947 7.8605 7.96669 8.00306 7.96669Z" fill="#FF8800"/>
</svg>
