<svg width="16" height="16" viewBox="0 0 16 16" fill="none" xmlns="http://www.w3.org/2000/svg">
<path d="M7.00867 9.41295L5.45117 7.85545C5.34051 7.74478 5.20484 7.68945 5.04417 7.68945C4.88351 7.68945 4.74123 7.75034 4.61734 7.87211C4.50678 7.98534 4.45151 8.12217 4.45151 8.28261C4.45151 8.44295 4.50812 8.57845 4.62134 8.68911L6.60684 10.6913C6.7214 10.8045 6.85501 10.8611 7.00767 10.8611C7.16034 10.8611 7.29462 10.8045 7.41051 10.6913L11.346 6.75178C11.4705 6.63 11.5327 6.48945 11.5327 6.33011C11.5327 6.17078 11.4705 6.02923 11.346 5.90545C11.2242 5.79478 11.0802 5.74223 10.914 5.74778C10.7478 5.75334 10.6083 5.81145 10.4957 5.92211L7.00867 9.41295ZM8.00051 14.7663C7.07317 14.7663 6.19795 14.5892 5.37484 14.2349C4.55184 13.8807 3.83301 13.3963 3.21834 12.7816C2.60367 12.1669 2.11923 11.4483 1.76501 10.6256C1.41078 9.80295 1.23367 8.92789 1.23367 8.00045C1.23367 7.062 1.41078 6.18122 1.76501 5.35811C2.11923 4.53511 2.60345 3.819 3.21767 3.20978C3.8319 2.60045 4.55045 2.11811 5.37334 1.76278C6.19623 1.40734 7.07151 1.22961 7.99917 1.22961C8.93784 1.22961 9.8189 1.40722 10.6423 1.76245C11.4657 2.11767 12.1818 2.59973 12.7908 3.20861C13.4 3.8175 13.8821 4.5335 14.2373 5.35661C14.5927 6.17973 14.7703 7.06084 14.7703 7.99995C14.7703 8.92773 14.5926 9.80311 14.2372 10.6261C13.8818 11.4491 13.3995 12.1678 12.7902 12.7821C12.181 13.3964 11.465 13.8807 10.6423 14.2349C9.81967 14.5892 8.93906 14.7663 8.00051 14.7663ZM8.00001 13.6308C9.56712 13.6308 10.8974 13.0822 11.9908 11.9849C13.0842 10.8876 13.6308 9.55928 13.6308 7.99995C13.6308 6.43284 13.0842 5.10256 11.9908 4.00911C10.8974 2.91578 9.56645 2.36911 7.99801 2.36911C6.44067 2.36911 5.11317 2.91578 4.01551 4.00911C2.91795 5.10256 2.36917 6.4335 2.36917 8.00195C2.36917 9.55928 2.91778 10.8868 4.01501 11.9844C5.11234 13.082 6.44067 13.6308 8.00001 13.6308Z" fill="#B0F2FF"/>
</svg>
