<svg width="24" height="24" viewBox="0 0 24 24" fill="none" xmlns="http://www.w3.org/2000/svg">
<path d="M17.2858 22.275C17.0455 22.275 16.8435 22.1932 16.6798 22.0295C16.5162 21.8658 16.4343 21.6618 16.4343 21.4175V20.1C15.7675 19.8728 15.1703 19.5349 14.6426 19.0863C14.1149 18.6374 13.7011 18.0983 13.4011 17.469C13.3019 17.2618 13.308 17.0542 13.4193 16.8462C13.5308 16.6381 13.7043 16.4874 13.9396 16.3942C14.1404 16.3151 14.3393 16.3232 14.5363 16.4185C14.7332 16.5138 14.8853 16.6611 14.9926 16.8603C15.2513 17.3991 15.6311 17.824 16.1321 18.135C16.6333 18.4462 17.1845 18.6017 17.7858 18.6017H20.9233C21.2988 18.6017 21.618 18.7331 21.8808 18.9958C22.1437 19.2586 22.2751 19.5777 22.2751 19.9533V21.4175C22.2751 21.6618 22.1933 21.8658 22.0296 22.0295C21.8659 22.1932 21.6638 22.275 21.4233 22.275H17.2858ZM19.3526 17.2625C18.8061 17.2625 18.3399 17.0688 17.9541 16.6815C17.5681 16.2942 17.3751 15.8286 17.3751 15.2847C17.3751 14.7409 17.5684 14.2758 17.9551 13.8892C18.3418 13.5026 18.8083 13.3092 19.3548 13.3092C19.9014 13.3092 20.3678 13.5029 20.7543 13.8902C21.141 14.2776 21.3343 14.7432 21.3343 15.287C21.3343 15.8308 21.1407 16.296 20.7533 16.6825C20.366 17.0692 19.8991 17.2625 19.3526 17.2625ZM2.5836 10.6907C2.3386 10.6907 2.13426 10.6089 1.9706 10.4452C1.80693 10.2816 1.7251 10.0796 1.7251 9.83925V8.375C1.7251 7.9995 1.8571 7.68033 2.1211 7.4175C2.3851 7.15467 2.7056 7.02325 3.0826 7.02325H6.21435C6.80335 7.02325 7.34926 6.86775 7.8521 6.55675C8.3551 6.24575 8.73593 5.82717 8.9946 5.301C9.09693 5.09833 9.25452 4.93992 9.46735 4.82575C9.68002 4.71142 9.89077 4.68808 10.0996 4.75575C10.3341 4.82325 10.5079 4.958 10.6211 5.16C10.7343 5.362 10.7432 5.56667 10.6478 5.774C10.3602 6.4225 9.9496 6.98642 9.4161 7.46575C8.8826 7.94508 8.26585 8.29708 7.56585 8.52175V9.83925C7.56585 10.0796 7.48401 10.2816 7.32035 10.4452C7.15668 10.6089 6.95468 10.6907 6.71435 10.6907H2.5836ZM4.64535 5.68425C4.09885 5.68425 3.63335 5.49058 3.24885 5.10325C2.86418 4.71592 2.67185 4.249 2.67185 3.7025C2.67185 3.156 2.86476 2.68983 3.2506 2.304C3.63643 1.918 4.10201 1.725 4.64735 1.725C5.19268 1.725 5.6586 1.91833 6.0451 2.305C6.43176 2.69167 6.6251 3.15825 6.6251 3.70475C6.6251 4.25125 6.43176 4.71775 6.0451 5.10425C5.65843 5.49092 5.19185 5.68425 4.64535 5.68425ZM10.5373 13.5658C10.3118 13.5658 10.1253 13.4913 9.9776 13.3422C9.82993 13.1934 9.7561 13.0064 9.7561 12.7812C9.7561 10.8849 10.4232 9.26967 11.7573 7.9355C13.0915 6.60133 14.7068 5.93425 16.6031 5.93425C16.8283 5.93425 17.0153 6.00917 17.1641 6.159C17.3131 6.30867 17.3876 6.49617 17.3876 6.7215C17.3876 6.94683 17.3131 7.13392 17.1641 7.28275C17.0153 7.43158 16.8283 7.506 16.6033 7.506C15.1403 7.506 13.8943 8.01992 12.8653 9.04775C11.8363 10.0756 11.3218 11.3197 11.3218 12.78C11.3218 13.0027 11.2467 13.1892 11.0963 13.3397C10.946 13.4904 10.7597 13.5658 10.5373 13.5658ZM13.6031 13.5658C13.3776 13.5658 13.191 13.4913 13.0433 13.3422C12.8957 13.1934 12.8218 13.0063 12.8218 12.781C12.8218 11.722 13.1873 10.8281 13.9181 10.0992C14.6489 9.37042 15.5435 9.006 16.6018 9.006C16.8245 9.006 17.0111 9.08117 17.1616 9.2315C17.3123 9.38183 17.3876 9.56808 17.3876 9.79025C17.3876 10.0159 17.3131 10.2026 17.1641 10.3502C17.0153 10.4979 16.8278 10.5717 16.6018 10.5717C15.9815 10.5717 15.4574 10.7843 15.0296 11.2095C14.6016 11.6347 14.3876 12.1582 14.3876 12.78C14.3876 13.0027 14.3124 13.1892 14.1621 13.3397C14.0118 13.4904 13.8254 13.5658 13.6031 13.5658Z" fill="#FF8800"/>
</svg>
