<svg width="16" height="16" viewBox="0 0 16 16" fill="none" xmlns="http://www.w3.org/2000/svg">
<path d="M7.99989 14.7663C7.69456 14.7663 7.42206 14.6947 7.18239 14.5516C6.94262 14.4085 6.78673 14.2065 6.71473 13.9456H6.48139C6.19617 13.9323 5.95023 13.8173 5.74356 13.6008C5.53689 13.3842 5.43356 13.1339 5.43356 12.8499V10.5184C4.69756 10.0291 4.11912 9.40895 3.69823 8.65795C3.27734 7.90706 3.06689 7.07661 3.06689 6.16661C3.06689 4.7965 3.54634 3.63117 4.50523 2.67061C5.46401 1.70995 6.62856 1.22961 7.99889 1.22961C9.36934 1.22961 10.535 1.70995 11.4957 2.67061C12.4565 3.63117 12.9369 4.7965 12.9369 6.16661C12.9369 7.07728 12.7258 7.90811 12.3036 8.65911C11.8813 9.41022 11.3036 10.03 10.5702 10.5184V12.8499C10.5702 13.1339 10.4662 13.3842 10.2582 13.6008C10.0502 13.8173 9.80495 13.9323 9.52239 13.9456H9.28906C9.21439 14.2065 9.05651 14.4085 8.81539 14.5516C8.57439 14.6947 8.30256 14.7663 7.99989 14.7663ZM6.56906 12.8499H9.43073V12.1166H6.56906V12.8499ZM6.56906 11.4499H9.43073V10.7833H6.56906V11.4499ZM6.38323 9.74745H7.59273V7.50795L6.31723 6.23261C6.23423 6.1495 6.19612 6.05739 6.20289 5.95628C6.20978 5.85517 6.25345 5.76306 6.33389 5.67995C6.41701 5.59961 6.50912 5.55945 6.61023 5.55945C6.71134 5.55945 6.80345 5.59961 6.88656 5.67995L7.99989 6.81811L9.13389 5.67995C9.21701 5.59961 9.30912 5.56223 9.41023 5.56778C9.51134 5.57334 9.60345 5.61628 9.68656 5.69661C9.76689 5.77973 9.80706 5.86906 9.80706 5.96461C9.80706 6.06017 9.76689 6.1495 9.68656 6.23261L8.40706 7.50795V9.74745H9.61656C10.2752 9.43634 10.8034 8.95589 11.2011 8.30611C11.5986 7.65645 11.7974 6.94378 11.7974 6.16811C11.7974 5.1 11.4315 4.19978 10.6997 3.46745C9.96795 2.73522 9.06823 2.36911 8.00056 2.36911C6.93301 2.36911 6.03306 2.73511 5.30073 3.46711C4.56851 4.19911 4.20239 5.09906 4.20239 6.16695C4.20239 6.94228 4.40117 7.65511 4.79873 8.30545C5.19639 8.95567 5.72456 9.43634 6.38323 9.74745Z" fill="#FF8800"/>
</svg>
