<svg width="45" height="37" viewBox="0 0 45 37" fill="none" xmlns="http://www.w3.org/2000/svg">
<path d="M21.153 11.0695L17.1225 6.989C16.7828 6.649 16.613 6.24917 16.613 5.7895C16.613 5.32983 16.7828 4.93 17.1225 4.59L21.153 0.5095C21.493 0.169833 21.8928 0 22.3525 0C22.8122 0 23.212 0.169833 23.552 0.5095L27.6325 4.59C27.9722 4.93 28.142 5.32983 28.142 5.7895C28.142 6.24917 27.9722 6.649 27.6325 6.989L23.552 11.0695C23.212 11.4092 22.8122 11.579 22.3525 11.579C21.8928 11.579 21.493 11.4092 21.153 11.0695ZM1.703 36.263C1.214 36.263 0.807833 36.1013 0.4845 35.778C0.1615 35.455 0 35.0488 0 34.5595V28.0595C0 27.0372 0.3635 26.1643 1.0905 25.441C1.81783 24.718 2.68867 24.3565 3.703 24.3565H10.813C11.3953 24.3565 11.935 24.4902 12.432 24.7575C12.9287 25.0248 13.3523 25.3965 13.703 25.8725C14.6857 27.2965 15.939 28.3998 17.463 29.1825C18.9867 29.9652 20.6145 30.3565 22.3465 30.3565C24.0705 30.3565 25.6963 29.9652 27.224 29.1825C28.752 28.3998 30.028 27.2965 31.052 25.8725C31.3867 25.3965 31.796 25.0248 32.28 24.7575C32.7643 24.4902 33.3017 24.3565 33.892 24.3565H41.002C42.0243 24.3565 42.8972 24.718 43.6205 25.441C44.3435 26.1643 44.705 27.0372 44.705 28.0595V34.5595C44.705 35.0488 44.5435 35.455 44.2205 35.778C43.8972 36.1013 43.491 36.263 43.002 36.263H33.002C32.5127 36.263 32.1065 36.1013 31.7835 35.778C31.4602 35.455 31.2985 35.0488 31.2985 34.5595V30.241C30.0905 31.3013 28.7175 32.1235 27.1795 32.7075C25.6415 33.2915 24.0305 33.5835 22.3465 33.5835C20.6705 33.5835 19.0698 33.2935 17.5445 32.7135C16.0192 32.1335 14.6398 31.3093 13.4065 30.241V34.5595C13.4065 35.0488 13.2448 35.455 12.9215 35.778C12.5982 36.1013 12.192 36.263 11.703 36.263H1.703ZM6.3465 20.4975C4.8225 20.4975 3.51083 19.9478 2.4115 18.8485C1.3125 17.7495 0.763 16.434 0.763 14.902C0.763 13.3527 1.3125 12.0347 2.4115 10.948C3.51083 9.86166 4.8225 9.3185 6.3465 9.3185C7.90383 9.3185 9.22583 9.86166 10.3125 10.948C11.3988 12.0347 11.942 13.3527 11.942 14.902C11.942 16.434 11.3988 17.7495 10.3125 18.8485C9.22583 19.9478 7.90383 20.4975 6.3465 20.4975ZM38.3465 20.4975C36.8225 20.4975 35.5108 19.9478 34.4115 18.8485C33.3125 17.7495 32.763 16.434 32.763 14.902C32.763 13.3527 33.3125 12.0347 34.4115 10.948C35.5108 9.86166 36.8225 9.3185 38.3465 9.3185C39.9038 9.3185 41.2258 9.86166 42.3125 10.948C43.3988 12.0347 43.942 13.3527 43.942 14.902C43.942 16.434 43.3988 17.7495 42.3125 18.8485C41.2258 19.9478 39.9038 20.4975 38.3465 20.4975Z" fill="#00D5FF"/>
</svg>
