<svg width="24" height="24" viewBox="0 0 24 24" fill="none" xmlns="http://www.w3.org/2000/svg">
<path d="M11.8651 20.5C11.9471 20.5 12.0423 20.4802 12.1506 20.4405C12.2589 20.4008 12.3484 20.3457 12.4191 20.275L20.8201 11.849C21.0446 11.6243 21.2151 11.3669 21.3316 11.0767C21.4479 10.7867 21.5061 10.4886 21.5061 10.1822C21.5061 9.87875 21.4479 9.57666 21.3316 9.276C21.2151 8.97533 21.0446 8.71083 20.8201 8.4825L16.4876 4.15C16.2669 3.93333 16.0119 3.77083 15.7224 3.6625C15.433 3.55416 15.1434 3.5 14.8534 3.5C14.5637 3.5 14.2787 3.55316 13.9984 3.6595C13.718 3.76583 13.4715 3.92333 13.2589 4.132L12.8506 4.54625L14.8399 6.55425C15.0684 6.80358 15.2709 7.09141 15.4476 7.41775C15.6243 7.74391 15.7126 8.10241 15.7126 8.49325C15.7126 9.15825 15.4527 9.74633 14.9329 10.2575C14.4129 10.7688 13.8179 11.0245 13.1481 11.0245C12.7089 11.0245 12.3439 10.958 12.0529 10.825C11.7619 10.692 11.4918 10.5009 11.2426 10.2517L9.42936 8.4385L5.01211 12.856C4.92877 12.9362 4.87044 13.0226 4.83711 13.1152C4.80377 13.2079 4.78711 13.3048 4.78711 13.406C4.78711 13.6227 4.85744 13.8008 4.99811 13.9405C5.13877 14.0802 5.31677 14.15 5.53211 14.15C5.63144 14.15 5.72769 14.125 5.82086 14.075C5.91419 14.025 5.99461 13.9667 6.06211 13.9L8.9256 11.037C9.07677 10.8855 9.25236 10.8097 9.45236 10.8097C9.65236 10.8097 9.82736 10.8857 9.97736 11.0377C10.1274 11.1897 10.2024 11.365 10.2024 11.5635C10.2024 11.762 10.1274 11.9357 9.97736 12.0847L7.13761 14.9242C7.05394 15.0081 6.99544 15.1013 6.96211 15.204C6.92877 15.3068 6.91211 15.4075 6.91211 15.506C6.91211 15.7075 6.98511 15.8819 7.1311 16.0292C7.27711 16.1764 7.45011 16.25 7.65011 16.25C7.75011 16.25 7.84719 16.229 7.94136 16.187C8.03552 16.1452 8.11802 16.0907 8.18886 16.0237L11.0384 13.168C11.1897 13.0165 11.3654 12.9417 11.5654 12.9437C11.7654 12.9457 11.9404 13.0197 12.0904 13.1657C12.2404 13.3157 12.3154 13.4907 12.3154 13.6907C12.3154 13.8907 12.2404 14.0657 12.0904 14.2157L9.24486 17.0555C9.18169 17.1225 9.12827 17.2102 9.08461 17.3185C9.04094 17.4268 9.01911 17.531 9.01911 17.631C9.01911 17.831 9.09411 18.006 9.24411 18.156C9.39411 18.306 9.56911 18.381 9.76911 18.381C9.86911 18.381 9.96144 18.3633 10.0461 18.328C10.1309 18.2927 10.2136 18.2353 10.2941 18.156L13.1594 15.2847C13.3084 15.1347 13.4831 15.0607 13.6836 15.0627C13.8841 15.0647 14.0594 15.1387 14.2094 15.2847C14.3594 15.4387 14.4344 15.615 14.4344 15.8135C14.4344 16.012 14.3594 16.1857 14.2094 16.3347L11.3441 19.2C11.2648 19.2833 11.2074 19.3763 11.1721 19.479C11.1368 19.5818 11.1191 19.6742 11.1191 19.756C11.1191 19.9908 11.1858 20.1736 11.3191 20.3042C11.4524 20.4347 11.6344 20.5 11.8651 20.5ZM11.8691 22.1375C11.2993 22.1375 10.7887 21.9323 10.3374 21.522C9.88602 21.1117 9.61077 20.6005 9.51161 19.9885C8.95277 19.9012 8.48077 19.6639 8.09561 19.2767C7.71027 18.8894 7.47394 18.4183 7.38661 17.8635C6.83577 17.7723 6.37186 17.5318 5.99486 17.142C5.61786 16.7523 5.38377 16.2885 5.29261 15.7505C4.67194 15.6513 4.15861 15.3823 3.75261 14.9435C3.34661 14.5048 3.14361 13.9839 3.14361 13.3807C3.14361 13.0816 3.20144 12.7825 3.31711 12.4835C3.43261 12.1845 3.60336 11.9204 3.82936 11.6912L8.23586 7.28475C8.56186 6.96158 8.96036 6.8 9.43136 6.8C9.90252 6.8 10.3017 6.96158 10.6289 7.28475L12.2691 8.925C12.4024 9.05833 12.5489 9.1635 12.7086 9.2405C12.8683 9.3175 13.0258 9.356 13.1811 9.356C13.3943 9.356 13.5956 9.26058 13.7851 9.06975C13.9744 8.87908 14.0691 8.67616 14.0691 8.461C14.0691 8.36166 14.0379 8.2475 13.9756 8.1185C13.9133 7.9895 13.8174 7.85825 13.6879 7.72475L10.1009 4.1375C9.88836 3.92516 9.63536 3.76583 9.34186 3.6595C9.04852 3.55316 8.75286 3.5 8.45486 3.5C8.15269 3.5 7.86261 3.55316 7.58461 3.6595C7.30661 3.76583 7.06361 3.92483 6.85561 4.1365L3.11436 7.86625C2.80086 8.18375 2.60861 8.571 2.53761 9.028C2.46661 9.485 2.51877 9.92025 2.69411 10.3337C2.76544 10.5369 2.75252 10.7383 2.65536 10.938C2.55802 11.1377 2.40669 11.2772 2.20136 11.3565C1.99619 11.4358 1.78861 11.4239 1.57861 11.3207C1.36861 11.2174 1.22494 11.0622 1.14761 10.855C0.882272 10.1168 0.809939 9.38291 0.930605 8.65325C1.05127 7.92358 1.39727 7.27266 1.96861 6.7005L5.67786 2.9865C6.05252 2.61183 6.48736 2.335 6.98236 2.156C7.47736 1.977 7.97652 1.8875 8.47986 1.8875C8.99502 1.8875 9.49302 1.977 9.97386 2.156C10.4545 2.335 10.8812 2.60783 11.2539 2.9745L11.6681 3.3825L12.0761 2.9745C12.4468 2.61183 12.8791 2.34 13.3731 2.159C13.8671 1.978 14.3684 1.8875 14.8769 1.8875C15.384 1.8875 15.8797 1.98 16.3639 2.165C16.8482 2.35 17.2777 2.62975 17.6524 3.00425L22.0019 7.34775C22.3805 7.72491 22.6644 8.16416 22.8536 8.6655C23.0429 9.16683 23.1376 9.67241 23.1376 10.1822C23.1376 10.6922 23.0399 11.196 22.8446 11.6935C22.6494 12.191 22.3625 12.631 21.9839 13.0135L13.5649 21.4267C13.3362 21.6552 13.0764 21.8308 12.7854 21.9535C12.4945 22.0762 12.1891 22.1375 11.8691 22.1375Z" fill="#FF8800"/>
</svg>
