<svg width="24" height="24" viewBox="0 0 24 24" fill="none" xmlns="http://www.w3.org/2000/svg">
<path d="M2.36783 9.73149L6.17658 2.88799C6.27008 2.73799 6.37892 2.62999 6.50308 2.56399C6.62708 2.49816 6.765 2.46524 6.91683 2.46524C7.0685 2.46524 7.20617 2.49816 7.32983 2.56399C7.4535 2.62999 7.56217 2.73799 7.65583 2.88799L11.4586 9.73149C11.5539 9.87566 11.5964 10.0228 11.5861 10.173C11.5758 10.323 11.5335 10.4617 11.4593 10.589C11.3882 10.7133 11.288 10.8149 11.1588 10.8937C11.0297 10.9726 10.883 11.012 10.7188 11.012H3.10733C2.9425 11.012 2.79508 10.9722 2.66508 10.8925C2.53525 10.8128 2.43358 10.7102 2.36008 10.5845C2.28658 10.459 2.24567 10.3214 2.23733 10.1717C2.229 10.0219 2.2725 9.87516 2.36783 9.73149ZM6.94708 21.287C5.80442 21.287 4.82617 20.8809 4.01233 20.0687C3.1985 19.2564 2.79158 18.28 2.79158 17.1395C2.79158 15.9817 3.19817 15.0003 4.01133 14.1955C4.8245 13.3905 5.80208 12.988 6.94408 12.988C8.08592 12.988 9.0625 13.3943 9.87383 14.207C10.685 15.0195 11.0906 15.9963 11.0906 17.1375C11.0906 18.2802 10.6848 19.2574 9.87333 20.0692C9.062 20.8811 8.08658 21.287 6.94708 21.287ZM6.94683 19.5777C7.62717 19.5777 8.204 19.3419 8.67733 18.8702C9.15067 18.3986 9.38733 17.821 9.38733 17.1375C9.38733 16.4572 9.15025 15.8794 8.67608 15.4042C8.20208 14.9289 7.62475 14.6912 6.94408 14.6912C6.26192 14.6912 5.68417 14.9289 5.21083 15.4042C4.7375 15.8794 4.50083 16.4581 4.50083 17.1402C4.50083 17.8224 4.73725 18.3992 5.21008 18.8707C5.68275 19.3421 6.26167 19.5777 6.94683 19.5777ZM4.56183 9.30874H9.27058L6.91608 5.07599L4.56183 9.30874ZM13.0356 20.4352V13.8397C13.0356 13.5992 13.1175 13.3972 13.2813 13.2335C13.445 13.0698 13.647 12.988 13.8873 12.988H20.4831C20.7234 12.988 20.9254 13.0698 21.0891 13.2335C21.2528 13.3972 21.3346 13.5992 21.3346 13.8397V20.4352C21.3346 20.6757 21.2528 20.8778 21.0891 21.0415C20.9254 21.2052 20.7234 21.287 20.4831 21.287H13.8873C13.647 21.287 13.445 21.2052 13.2813 21.0415C13.1175 20.8778 13.0356 20.6757 13.0356 20.4352ZM14.7448 19.5777H19.6313V14.6912H14.7448V19.5777ZM16.6443 10.5522L15.1266 9.25324C13.9326 8.24274 13.1189 7.44708 12.6856 6.86624C12.2522 6.28541 12.0356 5.64591 12.0356 4.94774C12.0356 4.15391 12.3081 3.48974 12.8531 2.95524C13.3981 2.42058 14.0822 2.15324 14.9053 2.15324C15.3455 2.15324 15.7686 2.25533 16.1746 2.45949C16.5806 2.66349 16.9194 2.95708 17.1911 3.34024C17.4594 2.95708 17.7972 2.66349 18.2043 2.45949C18.6113 2.25533 19.0356 2.15324 19.4771 2.15324C20.3003 2.15324 20.9832 2.42058 21.5261 2.95524C22.0691 3.48974 22.3406 4.15391 22.3406 4.94774C22.3406 5.64591 22.1239 6.28541 21.6906 6.86624C21.2572 7.44708 20.4457 8.24274 19.2558 9.25324L17.7318 10.5522C17.5738 10.6847 17.3924 10.751 17.1876 10.751C16.9828 10.751 16.8017 10.6847 16.6443 10.5522ZM17.1911 8.74999C18.5759 7.60333 19.4965 6.78666 19.9528 6.29999C20.4092 5.81333 20.6373 5.39324 20.6373 5.03974C20.6373 4.68974 20.535 4.40699 20.3303 4.19149C20.1258 3.97616 19.8462 3.86849 19.4913 3.86849C19.2798 3.86849 19.0744 3.92524 18.8751 4.03874C18.6758 4.15241 18.4181 4.34599 18.1021 4.61949L17.1881 5.45649L16.2803 4.61949C15.9698 4.33999 15.7118 4.14491 15.5063 4.03424C15.3008 3.92374 15.0958 3.86849 14.8911 3.86849C14.5339 3.86849 14.2536 3.97616 14.0501 4.19149C13.8466 4.40699 13.7448 4.68974 13.7448 5.03974C13.7448 5.39291 13.9722 5.81249 14.4271 6.29849C14.8818 6.78449 15.8031 7.60166 17.1911 8.74999Z" fill="#FF8800"/>
</svg>
