<svg width="24" height="24" viewBox="0 0 24 24" fill="none" xmlns="http://www.w3.org/2000/svg">
<path d="M11.9999 2.34473C14.0242 2.34473 15.8029 3.04933 17.3553 4.47754C18.8789 5.87913 19.6552 7.7626 19.6552 10.1826C19.6551 11.1679 19.4382 12.1526 18.996 13.1406C18.5425 14.154 17.9734 15.1246 17.288 16.0527C16.5966 16.9889 15.8458 17.8627 15.035 18.6738C14.212 19.4974 13.4447 20.2259 12.7333 20.8594L12.7274 20.8643L12.7225 20.8691C12.632 20.9548 12.5274 21.017 12.4052 21.0566C12.2587 21.1041 12.1215 21.126 11.9921 21.126C11.8628 21.126 11.7292 21.104 11.5897 21.0576C11.474 21.0191 11.3759 20.959 11.2899 20.875L11.2811 20.8662L11.2714 20.8584C10.5564 20.2252 9.78741 19.497 8.96472 18.6738C8.15398 17.8627 7.40315 16.9889 6.71179 16.0527C6.02653 15.1248 5.45811 14.1547 5.00671 13.1416C4.56634 12.1534 4.35052 11.1682 4.35046 10.1826C4.35046 7.76231 5.12659 5.8791 6.64832 4.47754C8.19864 3.04953 9.9756 2.34475 11.9999 2.34473ZM11.9999 3.05371C10.0646 3.05371 8.40981 3.72261 7.06824 5.05664C5.71865 6.39887 5.05359 8.12233 5.05359 10.1826C5.0537 11.6021 5.6475 13.1413 6.75183 14.7861C7.85668 16.4317 9.49736 18.2606 11.6591 20.2715L11.996 20.585L12.3358 20.2764C14.5486 18.2689 16.2062 16.4381 17.2889 14.7852C18.3677 13.138 18.9461 11.5989 18.9462 10.1826C18.9462 8.12228 18.2812 6.39888 16.9315 5.05664V5.05566C15.5897 3.72177 13.935 3.05375 11.9999 3.05371ZM11.9979 8.70215C12.3641 8.7022 12.6619 8.82522 12.9188 9.08105C13.175 9.33617 13.2977 9.63248 13.2977 9.99805C13.2977 10.3642 13.1747 10.6605 12.9198 10.915C12.6649 11.1694 12.3682 11.292 12.0018 11.292C11.6348 11.2919 11.3391 11.169 11.0848 10.916C10.8313 10.6634 10.708 10.3691 10.7079 10.0029C10.7079 9.68146 10.8022 9.41279 10.996 9.17871L11.0848 9.08105C11.3378 8.82567 11.6324 8.70215 11.9979 8.70215Z" fill="#FF8800" stroke="#FF8800"/>
</svg>
