<svg width="45" height="41" viewBox="0 0 45 41" fill="none" xmlns="http://www.w3.org/2000/svg">
<path d="M21.9822 37.225C22.1462 37.225 22.3365 37.1853 22.5532 37.106C22.7698 37.0267 22.9488 36.9163 23.0902 36.775L39.8922 19.923C40.3412 19.4737 40.6822 18.9588 40.9152 18.3785C41.1478 17.7985 41.2642 17.2022 41.2642 16.5895C41.2642 15.9825 41.1478 15.3783 40.9152 14.777C40.6822 14.1757 40.3412 13.6467 39.8922 13.19L31.2272 4.525C30.7858 4.09167 30.2757 3.76667 29.6967 3.55C29.118 3.33333 28.5387 3.225 27.9587 3.225C27.3793 3.225 26.8093 3.33133 26.2487 3.544C25.688 3.75667 25.195 4.07167 24.7697 4.489L23.9532 5.3175L27.9317 9.3335C28.3887 9.83217 28.7938 10.4078 29.1472 11.0605C29.5005 11.7128 29.6772 12.4298 29.6772 13.2115C29.6772 14.5415 29.1573 15.7177 28.1177 16.74C27.0777 17.7627 25.8878 18.274 24.5482 18.274C23.6698 18.274 22.9397 18.141 22.3577 17.875C21.7757 17.609 21.2355 17.2268 20.7372 16.7285L17.1107 13.102L8.27616 21.937C8.1095 22.0973 7.99283 22.2702 7.92616 22.4555C7.8595 22.6408 7.82616 22.8347 7.82616 23.037C7.82616 23.4703 7.96683 23.8267 8.24816 24.106C8.5295 24.3853 8.8855 24.525 9.31616 24.525C9.51483 24.525 9.70733 24.475 9.89366 24.375C10.0803 24.275 10.2412 24.1583 10.3762 24.025L16.1032 18.299C16.4055 17.996 16.7567 17.8445 17.1567 17.8445C17.5567 17.8445 17.9067 17.9965 18.2067 18.3005C18.5067 18.6045 18.6567 18.955 18.6567 19.352C18.6567 19.749 18.5067 20.0965 18.2067 20.3945L12.5272 26.0735C12.3598 26.2412 12.2428 26.4277 12.1762 26.633C12.1095 26.8387 12.0762 27.04 12.0762 27.237C12.0762 27.64 12.2222 27.9888 12.5142 28.2835C12.8062 28.5778 13.1522 28.725 13.5522 28.725C13.7522 28.725 13.9463 28.683 14.1347 28.599C14.323 28.5153 14.488 28.4065 14.6297 28.2725L20.3287 22.561C20.6313 22.258 20.9827 22.1085 21.3827 22.1125C21.7827 22.1165 22.1327 22.2645 22.4327 22.5565C22.7327 22.8565 22.8827 23.2065 22.8827 23.6065C22.8827 24.0065 22.7327 24.3565 22.4327 24.6565L16.7417 30.336C16.6153 30.47 16.5085 30.6453 16.4212 30.862C16.3338 31.0787 16.2902 31.287 16.2902 31.487C16.2902 31.887 16.4402 32.237 16.7402 32.537C17.0402 32.837 17.3902 32.987 17.7902 32.987C17.9902 32.987 18.1748 32.9517 18.3442 32.881C18.5138 32.8103 18.6792 32.6957 18.8402 32.537L24.5707 26.7945C24.8687 26.4945 25.2182 26.3465 25.6192 26.3505C26.0202 26.3545 26.3707 26.5025 26.6707 26.7945C26.9707 27.1025 27.1207 27.455 27.1207 27.852C27.1207 28.249 26.9707 28.5965 26.6707 28.8945L20.9402 34.625C20.7815 34.7917 20.6668 34.9777 20.5962 35.183C20.5255 35.3887 20.4902 35.5733 20.4902 35.737C20.4902 36.2067 20.6235 36.5722 20.8902 36.8335C21.1568 37.0945 21.5208 37.225 21.9822 37.225ZM21.9902 40.5C20.8505 40.5 19.8293 40.0897 18.9267 39.269C18.024 38.4483 17.4735 37.426 17.2752 36.202C16.1575 36.0273 15.2135 35.5528 14.4432 34.7785C13.6725 34.0038 13.1998 33.0617 13.0252 31.952C11.9235 31.7697 10.9957 31.2887 10.2417 30.509C9.48766 29.7297 9.0195 28.802 8.83716 27.726C7.59583 27.5277 6.56916 26.9897 5.75716 26.112C4.94516 25.2347 4.53916 24.1928 4.53916 22.9865C4.53916 22.3882 4.65483 21.79 4.88616 21.192C5.11716 20.594 5.45866 20.0658 5.91066 19.6075L14.7237 10.7945C15.3757 10.1482 16.1727 9.825 17.1147 9.825C18.057 9.825 18.8553 10.1482 19.5097 10.7945L22.7902 14.075C23.0568 14.3417 23.3498 14.552 23.6692 14.706C23.9885 14.86 24.3035 14.937 24.6142 14.937C25.0405 14.937 25.4432 14.7462 25.8222 14.3645C26.2008 13.9832 26.3902 13.5773 26.3902 13.147C26.3902 12.9483 26.3278 12.72 26.2032 12.462C26.0785 12.204 25.8867 11.9415 25.6277 11.6745L18.4537 4.5C18.0287 4.07533 17.5227 3.75667 16.9357 3.544C16.349 3.33133 15.7577 3.225 15.1617 3.225C14.5573 3.225 13.9772 3.33133 13.4212 3.544C12.8652 3.75667 12.3792 4.07467 11.9632 4.498L4.48066 11.9575C3.85366 12.5925 3.46916 13.367 3.32716 14.281C3.18516 15.195 3.2895 16.0655 3.64016 16.8925C3.78283 17.2988 3.757 17.7017 3.56266 18.101C3.368 18.5003 3.06533 18.7793 2.65466 18.938C2.24433 19.0967 1.82916 19.0728 1.40916 18.8665C0.989164 18.6598 0.701831 18.3493 0.547164 17.935C0.0164974 16.4587 -0.128169 14.9908 0.113164 13.5315C0.354497 12.0722 1.0465 10.7703 2.18916 9.626L9.60766 2.198C10.357 1.44867 11.2267 0.895 12.2167 0.537C13.2067 0.179 14.205 0 15.2117 0C16.242 0 17.238 0.179 18.1997 0.537C19.161 0.895 20.0143 1.44067 20.7597 2.174L21.5882 2.99L22.4042 2.174C23.1455 1.44867 24.0102 0.904999 24.9982 0.542999C25.9862 0.180999 26.9887 0 28.0057 0C29.02 0 30.0113 0.184999 30.9797 0.554999C31.9483 0.924999 32.8073 1.4845 33.5567 2.2335L42.2557 10.9205C43.013 11.6748 43.5808 12.5533 43.9592 13.556C44.3378 14.5587 44.5272 15.5698 44.5272 16.5895C44.5272 17.6095 44.3318 18.617 43.9412 19.612C43.5508 20.607 42.977 21.487 42.2197 22.252L25.3817 39.0785C24.9243 39.5355 24.4047 39.8867 23.8227 40.132C23.241 40.3773 22.6302 40.5 21.9902 40.5Z" fill="#007BFF"/>
</svg>
