<svg width="16" height="16" viewBox="0 0 16 16" fill="none" xmlns="http://www.w3.org/2000/svg">
<path d="M6.69341 11.0558C7.90208 11.0558 8.93408 10.6302 9.78941 9.77895C10.6447 8.92784 11.0724 7.89478 11.0724 6.67978C11.0724 5.47411 10.6446 4.44895 9.78891 3.60428C8.93324 2.75961 7.90208 2.33728 6.69541 2.33728C5.48808 2.33728 4.46336 2.75978 3.62124 3.60478C2.77902 4.44978 2.35791 5.47411 2.35791 6.67778C2.35791 7.89411 2.77902 8.92784 3.62124 9.77895C4.46336 10.6302 5.48741 11.0558 6.69341 11.0558ZM6.71141 8.49345C6.55886 8.49345 6.43202 8.44134 6.33091 8.33711C6.2298 8.233 6.17924 8.10517 6.17924 7.95361V4.61511C6.17924 4.46356 6.23074 4.33573 6.33374 4.23161C6.43686 4.12739 6.56469 4.07528 6.71724 4.07528C6.86991 4.07528 6.99769 4.12739 7.10058 4.23161C7.20347 4.33573 7.25491 4.46356 7.25491 4.61511V7.95361C7.25491 8.10517 7.20252 8.233 7.09774 8.33711C6.99286 8.44134 6.86408 8.49345 6.71141 8.49345ZM4.27874 8.49345C4.12619 8.49345 3.99869 8.44134 3.89624 8.33711C3.79391 8.233 3.74274 8.10517 3.74274 7.95361V6.00645C3.74274 5.85489 3.79513 5.72706 3.89991 5.62295C4.0048 5.51873 4.13358 5.46661 4.28624 5.46661C4.4388 5.46661 4.5663 5.51873 4.66874 5.62295C4.77119 5.72706 4.82241 5.85489 4.82241 6.00645V7.95361C4.82241 8.10517 4.76997 8.233 4.66508 8.33711C4.56019 8.44134 4.43141 8.49345 4.27874 8.49345ZM9.14808 8.49345C8.99541 8.49345 8.86786 8.44134 8.76541 8.33711C8.66308 8.233 8.61191 8.10517 8.61191 7.95361V6.68978C8.61191 6.53934 8.66435 6.41245 8.76924 6.30911C8.87413 6.20567 9.00286 6.15395 9.15541 6.15395C9.30808 6.15395 9.43558 6.20567 9.53791 6.30911C9.64036 6.41245 9.69158 6.53934 9.69158 6.68978V7.95361C9.69158 8.10517 9.63913 8.233 9.53424 8.33711C9.42935 8.44134 9.30063 8.49345 9.14808 8.49345ZM6.69358 12.1633C5.17924 12.1633 3.89341 11.6303 2.83608 10.5643C1.77886 9.49828 1.25024 8.20484 1.25024 6.68395C1.25024 5.16306 1.77802 3.87378 2.83358 2.81611C3.88913 1.75845 5.17736 1.22961 6.69824 1.22961C8.21913 1.22961 9.51297 1.75961 10.5797 2.81961C11.6465 3.8795 12.1799 5.16556 12.1799 6.67778C12.1799 7.33589 12.0722 7.95778 11.8569 8.54345C11.6416 9.12911 11.3395 9.65945 10.9506 10.1344L14.3724 13.5561C14.4856 13.6694 14.5401 13.8021 14.5359 13.9539C14.5317 14.1058 14.4758 14.2384 14.3682 14.3518C14.2632 14.465 14.1306 14.5216 13.9704 14.5216C13.8101 14.5216 13.6733 14.465 13.5601 14.3518L10.1549 10.9299C9.67769 11.3188 9.14552 11.6216 8.55841 11.8383C7.9713 12.0549 7.34969 12.1633 6.69358 12.1633Z" fill="#FF8800"/>
</svg>
