<svg width="45" height="40" viewBox="0 0 45 40" fill="none" xmlns="http://www.w3.org/2000/svg">
<path d="M0 31.9585V26.9385C0 25.7198 0.316833 24.6103 0.9505 23.61C1.58383 22.61 2.45617 21.8683 3.5675 21.385C5.5915 20.5023 7.6635 19.7757 9.7835 19.205C11.9035 18.6343 14.08 18.349 16.313 18.349C18.0443 18.349 19.7535 18.524 21.4405 18.874C23.1275 19.224 24.7748 19.699 26.3825 20.299C25.9522 20.7133 25.5515 21.1502 25.1805 21.6095C24.8098 22.0685 24.4888 22.5592 24.2175 23.0815C22.9412 22.6318 21.6425 22.3003 20.3215 22.087C19.0005 21.874 17.6622 21.7675 16.3065 21.7675C14.3175 21.7675 12.377 22.0135 10.485 22.5055C8.593 22.9975 6.77083 23.6315 5.0185 24.4075C4.5105 24.6375 4.11683 24.986 3.8375 25.453C3.55817 25.9203 3.4185 26.4305 3.4185 26.9835V28.552H22.449C22.4077 29.124 22.4137 29.6938 22.467 30.2615C22.5203 30.8292 22.6042 31.3948 22.7185 31.9585H0ZM16.305 15.299C14.161 15.299 12.3502 14.56 10.8725 13.082C9.3945 11.604 8.6555 9.79317 8.6555 7.6495C8.6555 5.5055 9.39383 3.69467 10.8705 2.217C12.3468 0.739001 14.1603 0 16.311 0C18.451 0 20.2598 0.738333 21.7375 2.215C23.2155 3.69133 23.9545 5.50483 23.9545 7.6555C23.9545 9.79517 23.2155 11.604 21.7375 13.082C20.2598 14.56 18.449 15.299 16.305 15.299ZM16.3035 12.024C17.5352 12.024 18.5725 11.6038 19.4155 10.7635C20.2582 9.9235 20.6795 8.88883 20.6795 7.6595C20.6795 6.42983 20.2592 5.39167 19.4185 4.545C18.5782 3.69833 17.543 3.275 16.313 3.275C15.0797 3.275 14.041 3.69767 13.197 4.543C12.3527 5.38867 11.9305 6.42617 11.9305 7.6555C11.9305 8.88483 12.3513 9.92033 13.193 10.762C14.035 11.6033 15.0718 12.024 16.3035 12.024ZM34.7415 7.6555C34.7415 9.7875 34.0007 11.5943 32.519 13.076C31.0377 14.558 29.2295 15.299 27.0945 15.299C26.6555 15.299 26.24 15.2803 25.848 15.243C25.456 15.2057 25.044 15.0997 24.612 14.925C25.528 13.949 26.1713 12.8247 26.542 11.552C26.9127 10.2793 27.098 8.98067 27.098 7.656C27.098 6.33167 26.896 5.04083 26.492 3.7835C26.088 2.5265 25.4613 1.39 24.612 0.373999C25.02 0.219999 25.424 0.119166 25.824 0.0714996C26.224 0.023833 26.6518 0 27.1075 0C29.2308 0 31.034 0.740165 32.517 2.2205C34 3.70117 34.7415 5.51283 34.7415 7.6555ZM35.0865 39.2075C32.4115 39.2075 30.1302 38.2618 28.2425 36.3705C26.3548 34.4792 25.411 32.1918 25.411 29.5085C25.411 26.8192 26.3567 24.529 28.248 22.638C30.1393 20.7467 32.4267 19.801 35.11 19.801C37.7993 19.801 40.0895 20.746 41.9805 22.636C43.8718 24.5263 44.8175 26.825 44.8175 29.532C44.8175 32.207 43.8725 34.4883 41.9825 36.376C40.0922 38.2637 37.7935 39.2075 35.0865 39.2075ZM33.226 33.736L40.046 26.8925L38.864 25.723L33.214 31.373L30.414 28.523L29.2325 29.7045L33.226 33.736Z" fill="#FFA033"/>
</svg>
