<svg width="60" height="60" viewBox="0 0 60 60" fill="none" xmlns="http://www.w3.org/2000/svg">
<path d="M53.6481 32.0394H47.8456C47.2594 32.0394 46.7702 31.8431 46.3781 31.4506C45.9856 31.0585 45.7894 30.5723 45.7894 29.9919C45.7894 29.4119 45.9863 28.9283 46.38 28.5412C46.7738 28.1542 47.2617 27.9606 47.8438 27.9606H53.6481C54.226 27.9606 54.7104 28.1569 55.1013 28.5494C55.4921 28.9415 55.6875 29.4277 55.6875 30.0081C55.6875 30.5881 55.4921 31.0717 55.1013 31.4587C54.7104 31.8458 54.226 32.0394 53.6481 32.0394ZM42.5256 42.7712C42.8865 42.3242 43.3381 42.0565 43.8806 41.9681C44.4231 41.8798 44.9248 42.0123 45.3856 42.3656L50.0831 45.845C50.5294 46.1983 50.7992 46.6462 50.8925 47.1887C50.9858 47.7312 50.8533 48.2356 50.495 48.7019C50.1371 49.1535 49.6867 49.4258 49.1438 49.5187C48.6013 49.6121 48.0931 49.4756 47.6194 49.1094L42.9269 45.6344C42.4802 45.281 42.2102 44.831 42.1169 44.2844C42.0235 43.7373 42.1598 43.2329 42.5256 42.7712ZM50.0831 14.155L45.5731 17.5719C45.1123 17.9252 44.6106 18.0577 44.0681 17.9694C43.5256 17.881 43.074 17.6133 42.7131 17.1662C42.3473 16.7187 42.2094 16.2181 42.2994 15.6644C42.3894 15.1106 42.661 14.6569 43.1144 14.3031L47.6388 10.8706C48.0996 10.5177 48.6013 10.3879 49.1438 10.4812C49.6867 10.5742 50.1346 10.8415 50.4875 11.2831C50.8508 11.7448 50.9858 12.2504 50.8925 12.8C50.7992 13.35 50.5294 13.8017 50.0831 14.155ZM12.4375 37.8737H8.40625C7.26542 37.8337 6.29792 37.399 5.50375 36.5694C4.70958 35.7398 4.3125 34.7552 4.3125 33.6156V26.3844C4.3125 25.2094 4.73083 24.2035 5.5675 23.3669C6.40458 22.5298 7.41063 22.1112 8.58563 22.1112H19.5813L29.3738 16.2544C30.0883 15.8294 30.8004 15.824 31.51 16.2381C32.22 16.6527 32.575 17.2694 32.575 18.0881V41.9119C32.575 42.7306 32.22 43.3473 31.51 43.7619C30.8004 44.176 30.0883 44.1706 29.3738 43.7456L19.5813 37.8737H16.7706V45.7144C16.7706 46.3256 16.5625 46.8383 16.1463 47.2525C15.7296 47.6667 15.2144 47.8737 14.6006 47.8737C13.9865 47.8737 13.4723 47.6667 13.0581 47.2525C12.6444 46.8383 12.4375 46.3256 12.4375 45.7144V37.8737ZM28.3019 38.1506V21.8494L20.6863 26.3844H8.58563V33.6156H20.6863L28.3019 38.1506ZM35.075 38.7487V21.2362C36.3096 22.2662 37.3004 23.5373 38.0475 25.0494C38.795 26.5619 39.1688 28.2121 39.1688 30C39.1688 31.7879 38.796 33.4375 38.0506 34.9487C37.3052 36.46 36.3133 37.7267 35.075 38.7487Z" fill="#004080"/>
</svg>
