<svg width="60" height="60" viewBox="0 0 60 60" fill="none" xmlns="http://www.w3.org/2000/svg">
<path d="M2.15625 39.8831V38.8168C2.15625 36.4868 3.31417 34.9558 5.63 34.2237C7.94542 33.4912 9.99729 33.125 11.7856 33.125C13.5735 33.125 15.6252 33.4902 17.9406 34.2206C20.2565 34.9514 21.4144 36.4835 21.4144 38.8168V39.8831H2.15625ZM11.7825 29.7768C10.4229 29.7768 9.26 29.2918 8.29375 28.3218C7.32708 27.3514 6.84375 26.185 6.84375 24.8225C6.84375 23.46 7.32792 22.2954 8.29625 21.3287C9.26458 20.3625 10.4285 19.8793 11.7881 19.8793C13.1477 19.8793 14.3106 20.3641 15.2769 21.3337C16.2435 22.3037 16.7269 23.4685 16.7269 24.8281C16.7269 26.1877 16.2427 27.3525 15.2744 28.3225C14.306 29.292 13.1421 29.7768 11.7825 29.7768ZM24.8331 33.5243C24.3548 33.5243 23.9598 33.3745 23.6481 33.075C23.3365 32.7754 23.1806 32.3906 23.1806 31.9206C23.1806 31.686 23.3365 31.28 23.6481 30.7025C23.9715 30.2441 24.2269 29.765 24.4144 29.265C24.6019 28.765 24.6956 28.2437 24.6956 27.7012C24.6956 27.1587 24.6019 26.6225 24.4144 26.0925C24.2269 25.5625 23.9698 25.0941 23.6431 24.6875C23.5081 24.5054 23.3973 24.316 23.3106 24.1193C23.224 23.9227 23.1806 23.7143 23.1806 23.4943C23.1806 23.0181 23.3369 22.625 23.6494 22.315C23.9619 22.0054 24.3565 21.8506 24.8331 21.8506C25.0435 21.8506 25.2598 21.8843 25.4819 21.9518C25.704 22.0193 25.8775 22.1364 26.0025 22.3031C26.7308 23.0631 27.2642 23.9089 27.6025 24.8406C27.9408 25.7722 28.11 26.7262 28.11 27.7025C28.11 28.6708 27.9279 29.6431 27.5637 30.6193C27.1996 31.596 26.6644 32.4335 25.9581 33.1318C25.7915 33.2985 25.6177 33.4056 25.4369 33.4531C25.2565 33.5006 25.0552 33.5243 24.8331 33.5243ZM29.5931 38.2787C29.1065 38.2787 28.7108 38.1216 28.4062 37.8075C28.1021 37.4937 27.95 37.0966 27.95 36.6162C27.95 36.3945 27.9904 36.1883 28.0713 35.9975C28.1521 35.8062 28.2602 35.621 28.3956 35.4418C29.4198 34.2431 30.179 32.9902 30.6731 31.6831C31.1673 30.376 31.4144 29.0479 31.4144 27.6987C31.4144 26.3495 31.1673 25.0097 30.6731 23.6793C30.179 22.3485 29.419 21.0997 28.3931 19.9331C28.2594 19.7556 28.1521 19.5737 28.0713 19.3875C27.9904 19.2008 27.95 18.9912 27.95 18.7587C27.95 18.2745 28.106 17.8789 28.4181 17.5718C28.7306 17.2647 29.1258 17.1112 29.6038 17.1112C29.8483 17.1112 30.0754 17.1681 30.285 17.2818C30.4946 17.3956 30.6869 17.547 30.8619 17.7362C32.1652 19.2362 33.1392 20.8281 33.7837 22.5118C34.4287 24.1956 34.7513 25.9233 34.7513 27.695C34.7513 29.4662 34.4287 31.1937 33.7837 32.8775C33.1392 34.5616 32.1654 36.1537 30.8625 37.6537C30.6987 37.862 30.5117 38.0183 30.3013 38.1225C30.0913 38.2266 29.8552 38.2787 29.5931 38.2787ZM38.5856 39.8831V38.8168C38.5856 36.4835 39.7435 34.9514 42.0594 34.2206C44.3748 33.4902 46.4265 33.125 48.2144 33.125C50.0027 33.125 52.0546 33.4912 54.37 34.2237C56.6858 34.9558 57.8438 36.4868 57.8438 38.8168V39.8831H38.5856ZM48.2119 29.7768C46.8523 29.7768 45.6894 29.2918 44.7231 28.3218C43.7565 27.3514 43.2731 26.185 43.2731 24.8225C43.2731 23.46 43.7573 22.2954 44.7256 21.3287C45.694 20.3625 46.8579 19.8793 48.2175 19.8793C49.5771 19.8793 50.74 20.3641 51.7062 21.3337C52.6729 22.3037 53.1562 23.4685 53.1562 24.8281C53.1562 26.1877 52.6721 27.3525 51.7038 28.3225C50.7354 29.292 49.5715 29.7768 48.2119 29.7768Z" fill="#004080"/>
</svg>
