<svg width="60" height="60" viewBox="0 0 60 60" fill="none" xmlns="http://www.w3.org/2000/svg">
<path d="M37.302 46.25C35.6011 46.25 34.1674 45.6629 33.0007 44.4887C31.834 43.3141 31.2507 41.8766 31.2507 40.1762C31.2507 38.4754 31.8378 37.0416 33.012 35.875C34.1865 34.7083 35.624 34.125 37.3245 34.125C39.0253 34.125 40.459 34.712 41.6257 35.8862C42.7924 37.0608 43.3757 38.4983 43.3757 40.1987C43.3757 41.8995 42.7886 43.3333 41.6145 44.5C40.4399 45.6666 39.0024 46.25 37.302 46.25ZM11.3851 55.3737C10.2351 55.3737 9.23799 54.9514 8.39383 54.1068C7.54924 53.2627 7.12695 52.2656 7.12695 51.1156V12.6343C7.12695 11.4802 7.54924 10.4795 8.39383 9.63245C9.23799 8.78495 10.2351 8.36121 11.3851 8.36121H15.3132V6.74558C15.3132 6.14766 15.5207 5.64245 15.9357 5.22995C16.3511 4.81745 16.8561 4.61121 17.4507 4.61121C18.0628 4.61121 18.579 4.81745 18.9995 5.22995C19.4199 5.64245 19.6301 6.14766 19.6301 6.74558V8.36121H40.3713V6.74558C40.3713 6.14766 40.579 5.64245 40.9945 5.22995C41.4095 4.81745 41.9142 4.61121 42.5088 4.61121C43.1213 4.61121 43.6376 4.81745 44.0576 5.22995C44.478 5.64245 44.6882 6.14766 44.6882 6.74558V8.36121H48.6163C49.7705 8.36121 50.7711 8.78495 51.6182 9.63245C52.4657 10.4795 52.8895 11.4802 52.8895 12.6343V51.1156C52.8895 52.2656 52.4657 53.2627 51.6182 54.1068C50.7711 54.9514 49.7705 55.3737 48.6163 55.3737H11.3851ZM11.3851 51.1156H48.6163V24.375H11.3851V51.1156ZM11.3851 20.625H48.6163V12.6343H11.3851V20.625Z" fill="#004080"/>
</svg>
