<svg width="60" height="60" viewBox="0 0 60 60" fill="none" xmlns="http://www.w3.org/2000/svg">
<path d="M20.5276 32.5463L25.1257 35.5963L29.0214 33.6713C29.3009 33.5263 29.617 33.4538 29.9695 33.4538C30.322 33.4538 30.643 33.5263 30.9326 33.6713L34.7982 35.6738L39.4407 32.5788L36.5332 26.6238H23.4507L20.5276 32.5463ZM11.332 51.2201H48.6695L41.2032 36.1332L36.1976 39.4813C35.883 39.7255 35.5403 39.8563 35.1695 39.8738C34.7987 39.8917 34.4268 39.8074 34.0539 39.6207L30.0007 37.6332L25.9476 39.6207C25.5747 39.8074 25.2095 39.8878 24.852 39.862C24.4945 39.8361 24.1501 39.7092 23.8189 39.4813L18.7657 36.0707L11.332 51.2201ZM8.03073 55.3738C7.21198 55.3738 6.59531 55.0424 6.18073 54.3795C5.76615 53.7161 5.74552 53.0322 6.11886 52.3276L19.672 24.817C20.0453 24.102 20.5732 23.5322 21.2557 23.1076C21.9382 22.6826 22.6897 22.4701 23.5101 22.4701H27.9314V6.7557C27.9314 6.15445 28.1359 5.64674 28.5451 5.23257C28.9543 4.81841 29.4595 4.61133 30.0607 4.61133H42.6201C42.9989 4.61133 43.2905 4.77966 43.4951 5.11633C43.7001 5.45258 43.7143 5.80737 43.5376 6.1807L42.2551 8.6982C42.1718 8.8432 42.1301 9.00904 42.1301 9.1957C42.1301 9.38237 42.1718 9.5482 42.2551 9.6932L43.5376 12.2107C43.7143 12.584 43.7001 12.9363 43.4951 13.2676C43.2905 13.5992 42.9989 13.7651 42.6201 13.7651H32.0851V22.4701H36.3039C37.1189 22.4701 37.8576 22.6851 38.5201 23.1151C39.1826 23.5447 39.7024 24.1167 40.0795 24.8313L53.8201 52.3276C54.1934 53.0322 54.1728 53.7161 53.7582 54.3795C53.3436 55.0424 52.727 55.3738 51.9082 55.3738H8.03073Z" fill="#004080"/>
</svg>
