<svg width="60" height="60" viewBox="0 0 60 60" fill="none" xmlns="http://www.w3.org/2000/svg">
<path d="M8.88508 55.6875C7.73508 55.6875 6.738 55.2637 5.89383 54.4162C5.04925 53.5692 4.62695 52.5685 4.62695 51.4144V19.7606C4.62695 18.6848 4.94195 17.7158 5.57195 16.8537C6.20195 15.9921 7.00841 15.3596 7.99133 14.9562L37.2045 3.17123C37.6557 2.9629 38.0999 2.95206 38.537 3.13873C38.974 3.32581 39.2765 3.65415 39.4445 4.12373C39.6161 4.59206 39.6124 5.04207 39.4332 5.47373C39.254 5.90582 38.9401 6.20394 38.4913 6.36811L17.1282 14.925H51.1163C52.2705 14.925 53.2711 15.3487 54.1182 16.1962C54.9657 17.0437 55.3895 18.0444 55.3895 19.1981V51.4144C55.3895 52.5685 54.9657 53.5692 54.1182 54.4162C53.2711 55.2637 52.2705 55.6875 51.1163 55.6875H8.88508ZM8.88508 51.4144H51.1163V32.2487H8.88508V51.4144ZM19.8151 47.5962C21.5159 47.5962 22.9497 47.0067 24.1163 45.8275C25.283 44.6483 25.8663 43.2133 25.8663 41.5225C25.8663 39.8217 25.279 38.3879 24.1045 37.2212C22.9303 36.0546 21.4928 35.4712 19.792 35.4712C18.0915 35.4712 16.658 36.0585 15.4913 37.2331C14.3247 38.4073 13.7413 39.8448 13.7413 41.5456C13.7413 43.236 14.3284 44.6671 15.5026 45.8387C16.6767 47.0104 18.1142 47.5962 19.8151 47.5962ZM8.88508 28.4987H41.2507V26.6875C41.2507 26.1529 41.4315 25.7085 41.7932 25.3544C42.1545 25.0002 42.6024 24.8231 43.137 24.8231C43.6711 24.8231 44.1153 25.0029 44.4695 25.3625C44.8236 25.7216 45.0007 26.1669 45.0007 26.6981V28.4987H51.1163V19.1981H8.88508V28.4987Z" fill="#004080"/>
</svg>
