<svg width="60" height="60" viewBox="0 0 60 60" fill="none" xmlns="http://www.w3.org/2000/svg">
<path d="M16.3851 43.795V53.6306V6.36937V43.795ZM29.9382 15.2988C30.472 15.2988 30.9328 15.1048 31.3207 14.7169C31.7086 14.329 31.9026 13.8681 31.9026 13.3344C31.9026 12.8002 31.7086 12.3392 31.3207 11.9512C30.9328 11.5633 30.472 11.3694 29.9382 11.3694C29.4045 11.3694 28.9436 11.5633 28.5557 11.9512C28.1678 12.3392 27.9738 12.8002 27.9738 13.3344C27.9738 13.8681 28.1678 14.329 28.5557 14.7169C28.9436 15.1048 29.4045 15.2988 29.9382 15.2988ZM16.4001 57.8737C15.2147 57.8737 14.2061 57.4594 13.3745 56.6306C12.5428 55.8019 12.127 54.7969 12.127 53.6156V6.38438C12.127 5.23021 12.5507 4.22958 13.3982 3.3825C14.2453 2.535 15.2459 2.11125 16.4001 2.11125H43.4763C44.6617 2.11125 45.6703 2.52708 46.502 3.35875C47.3336 4.19042 47.7495 5.19896 47.7495 6.38438V14.0762C47.7495 14.675 47.5438 15.1771 47.1326 15.5825C46.7213 15.9875 46.2099 16.19 45.5982 16.19C44.9865 16.19 44.4826 15.9854 44.0863 15.5762C43.6897 15.1671 43.4913 14.6621 43.4913 14.0612V6.36937H16.3851V53.6306H43.4913V45.9087C43.4913 45.31 43.697 44.8079 44.1082 44.4025C44.5195 43.9975 45.028 43.795 45.6338 43.795C46.2392 43.795 46.7432 43.9963 47.1457 44.3988C47.5482 44.8013 47.7495 45.3046 47.7495 45.9087V53.6156C47.7495 54.7969 47.3336 55.8019 46.502 56.6306C45.6703 57.4594 44.6617 57.8737 43.4763 57.8737H16.4001ZM36.5263 40.045C35.478 40.045 34.5899 39.6804 33.862 38.9512C33.1336 38.2221 32.7695 37.3325 32.7695 36.2825V26.2262C32.7695 25.1787 33.134 24.2883 33.8632 23.555C34.5924 22.8217 35.4836 22.455 36.537 22.455H39.0495L40.9426 20.5775C41.1592 20.3492 41.3909 20.1858 41.6376 20.0875C41.8838 19.9892 42.1445 19.94 42.4195 19.94H45.7401C46.0017 19.94 46.2565 19.9892 46.5045 20.0875C46.7524 20.1858 46.9899 20.3492 47.217 20.5775L49.0945 22.455H51.622C52.6653 22.455 53.554 22.8217 54.2882 23.555C55.0224 24.2883 55.3895 25.1787 55.3895 26.2262V36.2825C55.3895 37.3325 55.0224 38.2221 54.2882 38.9512C53.554 39.6804 52.6667 40.045 51.6263 40.045H36.5263ZM44.0813 35.64C45.2984 35.64 46.334 35.2113 47.1882 34.3538C48.0424 33.4963 48.4695 32.461 48.4695 31.2481C48.4695 30.031 48.0407 28.9929 47.1832 28.1338C46.3257 27.2746 45.2905 26.845 44.0776 26.845C42.8605 26.845 41.8224 27.2752 40.9632 28.1356C40.104 28.996 39.6745 30.0348 39.6745 31.2519C39.6745 32.469 40.1047 33.5046 40.9651 34.3587C41.8255 35.2129 42.8642 35.64 44.0813 35.64Z" fill="#004080"/>
</svg>
